<?xml version="1.0" encoding="UTF-8" standalone="no"?><svg xmlns="http://www.w3.org/2000/svg" xmlns:xlink="http://www.w3.org/1999/xlink" contentScriptType="text/ecmascript" fill="#e2f4f3" width="82" zoomAndPan="magnify" contentStyleType="text/css" viewBox="-0.3 0.0 82.3 38.8" height="39" data-name="Layer 2" preserveAspectRatio="xMidYMid meet" version="1"><g><g><g id="change1_1"><path d="M1.57,28.51l-.14-1.47c-.45-4.8-.04-8.95,1.25-12.71C4.94,7.63,9.85,3.61,16.49,3c.5-.05,1.07-.08,1.76-.08,1.96,0,4.16.27,6.54.8,1.73.41,3.77,1,6.06,1.78,2.4.86,4.79,1.79,7.12,2.76l.51.21c2.08.86,3.72,1.54,4.91,1.96,2.21.82,3.97,1.26,5.39,1.35.18,0,.4.01.6.01,2.01,0,3.73-.66,5.28-2.01,1.95-1.71,3.73-4.11,5.29-7.13l.69-1.34,1.49.12c1.69.12,3.39.26,5.08.42l1.8.17,11.4,9.23-1.13,2.19c-3.82,7.49-7.61,13.3-11.26,17.28-3.63,3.94-7.55,5.86-11.98,5.86-.52,0-1-.02-1.45-.07-1.27-.11-3.01-.68-6.17-2.03-2.42-1.04-5.03-2.2-7.99-3.56-1.55-.72-3.2-1.45-4.92-2.15-1.49-.62-2.86-1.09-4.08-1.4-1.64-.44-3.09-.66-4.33-.66-.19,0-.37,0-.55.02-2.07.13-3.52.92-4.45,2.41-.39.6-1.11,2.04-1.63,5.13l-.46,2.67-1.78.12c-1.35.1-2.72.2-4.09.33l-1.46.12L1.57,28.51Z"/><path d="M61.36,2.63l.65.05c1.69.12,3.38.26,5.07.42l1.42.13,10.32,8.35-.66,1.28c-3.77,7.38-7.49,13.1-11.07,17-3.38,3.67-7,5.45-11.06,5.45-.44,0-.89-.02-1.33-.06-1.14-.1-2.82-.66-5.8-1.93-2.37-1.02-4.97-2.17-7.96-3.55-1.62-.76-3.3-1.49-4.96-2.17-1.54-.64-2.98-1.13-4.25-1.45-1.7-.45-3.26-.7-4.64-.7-.23,0-.44,0-.66.02-2.44.16-4.26,1.17-5.4,2.99-.52.79-1.26,2.42-1.8,5.58l-.29,1.7-.8.05c-1.37.1-2.74.2-4.12.33l-.95.08L2.76,27.87l-.09-.95c-.43-4.6-.05-8.58,1.18-12.18,2.1-6.2,6.63-9.93,12.75-10.49.52-.05,1.07-.07,1.64-.07,1.86,0,3.98.26,6.27.77,1.72.4,3.75,1.01,5.92,1.75,2.36.85,4.73,1.76,7.04,2.73,2.33.96,4.16,1.73,5.49,2.19,2.31.86,4.18,1.32,5.72,1.42.23,0,.46.02.68.02,2.32,0,4.32-.76,6.1-2.32,2.07-1.82,3.94-4.34,5.58-7.5l.31-.6M59.9,0l-.76,1.48-.31.6c-1.49,2.87-3.18,5.15-5.01,6.76-1.32,1.15-2.74,1.69-4.45,1.69-.18,0-.37,0-.55-.01-1.29-.09-2.92-.5-4.98-1.26-1.21-.42-2.83-1.09-4.89-1.95l-.51-.21c-2.34-.98-4.75-1.91-7.15-2.77-2.37-.81-4.44-1.42-6.2-1.83-2.5-.55-4.79-.83-6.84-.83-.73,0-1.33.03-1.9.08C9.32,2.4,3.89,6.84,1.49,13.93.14,17.85-.28,22.17.18,27.15l.09.96.1,1.04.82.66,10.32,8.35.78.63,1-.08.95-.08c1.24-.11,2.53-.22,4.09-.33l.79-.05,1.97-.13.33-1.94.29-1.7c.51-2.97,1.17-4.23,1.43-4.64.47-.75,1.31-1.71,3.44-1.86.17,0,.34-.01.52-.01,1.13,0,2.48.21,3.99.61,1.19.3,2.5.75,3.93,1.35,1.7.7,3.33,1.41,4.86,2.13,2.97,1.36,5.59,2.53,8.03,3.58,3.29,1.41,5.14,2,6.57,2.13.46.05.98.07,1.54.07,4.81,0,9.03-2.05,12.9-6.26,3.72-4.06,7.58-9.97,11.46-17.56l.66-1.28.93-1.81-1.58-1.28-10.32-8.35-.59-.48-.75-.07-1.42-.13c-1.47-.14-3.05-.27-5.12-.42l-.63-.05-1.66-.14h0Z"/></g><g id="change2_1"><path fill="#004c41" d="M61.36,2.63l.65.05c1.69.12,3.38.26,5.07.42l1.42.13-.66,1.28c-3.77,7.38-7.49,13.1-11.07,17-3.38,3.67-7,5.45-11.06,5.45-.44,0-.89-.02-1.33-.06-1.14-.1-2.82-.66-5.8-1.93-2.37-1.02-4.97-2.17-7.96-3.55-1.62-.76-3.3-1.49-4.96-2.17-1.54-.64-2.98-1.13-4.25-1.45-1.7-.45-3.26-.7-4.64-.7-.23,0-.44,0-.66.02-2.44.16-4.26,1.17-5.4,2.99-.52.79-1.26,2.42-1.8,5.58l-.29,1.7-.8.05c-1.37.1-2.74.2-4.12.33l-.95.08-.09-.95c-.43-4.6-.05-8.58,1.18-12.18,2.1-6.2,6.63-9.93,12.75-10.49.52-.05,1.07-.07,1.64-.07,1.86,0,3.98.26,6.27.77,1.72.4,3.75,1.01,5.92,1.75,2.36.85,4.73,1.76,7.04,2.73,2.33.96,4.16,1.73,5.49,2.19,2.31.86,4.18,1.32,5.72,1.42.23,0,.46.02.68.02,2.32,0,4.32-.76,6.1-2.32,2.07-1.82,3.94-4.34,5.58-7.5l.31-.6Z"/></g></g></g></svg>